<?xml version="1.0" encoding="UTF-8"?><svg id="Layer_1" xmlns="http://www.w3.org/2000/svg" xmlns:xlink="http://www.w3.org/1999/xlink" viewBox="0 0 120 60"><defs><style>.cls-1{fill:#f5c6b3;}.cls-2{fill:#e2f0fc;}.cls-3{fill:url(#linear-gradient-2);}.cls-4{font-family:Roboto-Medium, 'Roboto Medium';font-size:.74px;}.cls-4,.cls-5,.cls-6{fill:#4f5784;}.cls-7{fill:#fff;}.cls-8{letter-spacing:0em;}.cls-9{fill:url(#linear-gradient-17);}.cls-5{font-family:BebasNeue, BebasNeue;font-size:2.25px;}.cls-10{fill:#9fabbd;}.cls-11{fill:#e6ecf8;}.cls-12{letter-spacing:-.01em;}.cls-13{fill:#7b2b1a;}.cls-14{fill:#3f466a;}.cls-15{letter-spacing:.01em;}.cls-16{fill:url(#linear-gradient-14);}.cls-17{fill:url(#linear-gradient-6);}.cls-18{clip-path:url(#clippath-2);}.cls-19{fill:#f5a89c;}.cls-20{fill:#97a3cc;}.cls-21{fill:#f39a8b;opacity:.41;}.cls-22{fill:#133a50;}.cls-23{fill:#4f5052;}.cls-24{letter-spacing:-.01em;}.cls-25{fill:url(#linear-gradient-15);}.cls-25,.cls-26,.cls-27{opacity:.47;}.cls-28{fill:url(#linear-gradient-11);}.cls-26{fill:url(#linear-gradient-18);}.cls-29{fill:#009fe3;}.cls-30{fill:#acc1e4;}.cls-31{fill:#232c5a;}.cls-32{letter-spacing:0em;}.cls-33{clip-path:url(#clippath-1);}.cls-34{fill:url(#linear-gradient-10);}.cls-35{fill:#812f51;}.cls-36{fill:#d1dbf1;}.cls-37{letter-spacing:0em;}.cls-38{fill:url(#linear-gradient-16);}.cls-39{fill:#7ba3ce;}.cls-40{fill:#d03f47;}.cls-41{fill:url(#linear-gradient-5);}.cls-42{clip-path:url(#clippath);}.cls-43{fill:none;}.cls-44{clip-path:url(#clippath-3);}.cls-45{fill:url(#linear-gradient-7);}.cls-46{letter-spacing:-.04em;}.cls-47{fill:#553039;}.cls-48{fill:url(#linear-gradient-9);}.cls-49{fill:url(#linear-gradient-3);}.cls-50{fill:#b02b47;}.cls-51{fill:url(#linear-gradient);}.cls-52{fill:#b0bdd1;}.cls-27{fill:url(#linear-gradient-20);}.cls-53{fill:url(#linear-gradient-19);}.cls-54{fill:url(#linear-gradient-4);}.cls-55{fill:url(#linear-gradient-8);}.cls-56{fill:#e95060;}.cls-57{fill:url(#linear-gradient-12);}.cls-58{fill:url(#linear-gradient-13);}</style><linearGradient id="linear-gradient" x1="85" y1="48.47" x2="85" y2="49.58" gradientTransform="matrix(1, 0, 0, 1, 0, 0)" gradientUnits="userSpaceOnUse"><stop offset="0" stop-color="#eef4fb"/><stop offset=".29" stop-color="#e4edf8"/><stop offset="1" stop-color="#d0e1f3"/></linearGradient><linearGradient id="linear-gradient-2" x1="85.09" y1="37.96" x2="84.94" y2="45.65" xlink:href="#linear-gradient"/><clipPath id="clippath"><polygon class="cls-43" points="64.53 39.49 64.59 19.76 105.47 19.76 105.41 39.49 64.53 39.49"/></clipPath><linearGradient id="linear-gradient-3" x1="-242.9" y1="429.79" x2="-242.9" y2="430.48" gradientTransform="translate(-170.83 463.83) rotate(-180)" gradientUnits="userSpaceOnUse"><stop offset="0" stop-color="#f9b114"/><stop offset="1" stop-color="#ffd71c"/></linearGradient><linearGradient id="linear-gradient-4" x1="-243.91" x2="-243.91" xlink:href="#linear-gradient-3"/><linearGradient id="linear-gradient-5" x1="-244.92" x2="-244.92" xlink:href="#linear-gradient-3"/><linearGradient id="linear-gradient-6" x1="-245.93" x2="-245.93" xlink:href="#linear-gradient-3"/><linearGradient id="linear-gradient-7" x1="-246.94" x2="-246.94" xlink:href="#linear-gradient-3"/><linearGradient id="linear-gradient-8" y1="436.94" y2="437.64" xlink:href="#linear-gradient-3"/><linearGradient id="linear-gradient-9" x1="-243.91" y1="436.94" x2="-243.91" y2="437.64" xlink:href="#linear-gradient-3"/><linearGradient id="linear-gradient-10" x1="-244.92" y1="436.94" x2="-244.92" y2="437.64" xlink:href="#linear-gradient-3"/><linearGradient id="linear-gradient-11" x1="-245.93" y1="436.94" x2="-245.93" y2="437.64" xlink:href="#linear-gradient-3"/><linearGradient id="linear-gradient-12" x1="-246.94" y1="436.94" x2="-246.94" y2="437.64" gradientTransform="translate(-170.83 463.83) rotate(-180)" gradientUnits="userSpaceOnUse"><stop offset="0" stop-color="#b5b9c0"/><stop offset=".17" stop-color="#b0b5be"/><stop offset="1" stop-color="#9ca9b7"/></linearGradient><clipPath id="clippath-1"><path class="cls-43" d="M80.3,17.07l-1.5-6.23c-.03-.11,.05-.21,.18-.23l3.59-.63c.12-.02,.25,.05,.27,.15l1.5,6.23c.03,.11-.05,.21-.18,.23l-3.59,.63c-.12,.02-.25-.05-.27-.15Z"/></clipPath><linearGradient id="linear-gradient-13" x1="29.4" y1="114.57" x2="29.78" y2="107.25" gradientTransform="translate(30.23 -89.42) rotate(-11.6)" xlink:href="#linear-gradient"/><linearGradient id="linear-gradient-14" x1="29.48" y1="114.33" x2="29.81" y2="114.33" gradientTransform="translate(30.23 -89.42) rotate(-11.6)" xlink:href="#linear-gradient"/><linearGradient id="linear-gradient-15" x1="28.17" y1="108.63" x2="30.21" y2="110.94" gradientTransform="translate(30.23 -89.42) rotate(-11.6)" gradientUnits="userSpaceOnUse"><stop offset=".25" stop-color="#fcf8d1" stop-opacity="0"/><stop offset=".48" stop-color="#fcfadf" stop-opacity=".32"/><stop offset=".84" stop-color="#fefdf5" stop-opacity=".8"/><stop offset="1" stop-color="#fff"/></linearGradient><linearGradient id="linear-gradient-16" x1="29.15" y1="114.01" x2="29.5" y2="107.27" gradientTransform="translate(30.23 -89.42) rotate(-11.6)" xlink:href="#linear-gradient"/><clipPath id="clippath-2"><rect class="cls-43" x="65.99" y="26.64" width="5.14" height="3.14" rx=".43" ry=".43" transform="translate(96.77 -40.35) rotate(90)"/></clipPath><linearGradient id="linear-gradient-17" x1="69.43" y1="25.34" x2="67.83" y2="30.3" gradientTransform="matrix(1, 0, 0, 1, 0, 0)" gradientUnits="userSpaceOnUse"><stop offset="0" stop-color="#fffef9"/><stop offset=".47" stop-color="#fad7ca"/><stop offset="1" stop-color="#f6ae99"/></linearGradient><linearGradient id="linear-gradient-18" x1="67.56" y1="26.27" x2="69.06" y2="27.98" gradientTransform="matrix(1, 0, 0, 1, 0, 0)" xlink:href="#linear-gradient-15"/><clipPath id="clippath-3"><rect class="cls-43" x="65.99" y="33.62" width="5.14" height="3.14" rx=".43" ry=".43" transform="translate(103.75 -33.38) rotate(90)"/></clipPath><linearGradient id="linear-gradient-19" x1="69.43" y1="32.32" x2="67.83" y2="37.28" gradientTransform="matrix(1, 0, 0, 1, 0, 0)" gradientUnits="userSpaceOnUse"><stop offset="0" stop-color="#fffef9"/><stop offset=".65" stop-color="#9ad9f4"/><stop offset="1" stop-color="#69c8f3"/></linearGradient><linearGradient id="linear-gradient-20" x1="67.56" y1="33.25" x2="69.06" y2="34.96" gradientTransform="matrix(1, 0, 0, 1, 0, 0)" xlink:href="#linear-gradient-15"/></defs><g><g><g><polygon class="cls-52" points="92.16 49.65 77.83 49.65 79.21 45.23 90.78 45.23 92.16 49.65"/><polygon class="cls-10" points="91.27 46.78 90.78 45.23 79.21 45.23 78.73 46.78 91.27 46.78"/><polygon class="cls-51" points="95.64 49.85 74.36 49.85 74.99 48.62 95.01 48.62 95.64 49.85"/><path class="cls-6" d="M105.76,45.88h-41.6c-.64,0-1.16-.45-1.16-.99l.08-25.44c0-.55,.53-.99,1.17-.99h41.6c.64,0,1.16,.45,1.16,.99l-.08,25.44c0,.55-.53,.99-1.17,.99Z"/><path class="cls-3" d="M105.79,45.88h-41.6c-.64,0-1.16-.45-1.16-.99v-4.19h43.95v4.19c-.01,.55-.54,.99-1.18,.99Z"/><path class="cls-2" d="M105.79,45.94h-41.6c-.64,0-1.16-.45-1.16-.99v-4.19h43.95v4.19c-.01,.55-.54,.99-1.18,.99Z"/><g class="cls-42"><polygon class="cls-7" points="64.53 39.49 64.59 19.76 105.47 19.76 105.41 39.49 64.53 39.49"/></g></g><g><polygon class="cls-2" points="103.76 50.47 65.9 50.47 69.98 48.15 99.69 48.15 103.76 50.47 103.76 50.47"/><polygon class="cls-52" points="103.76 50.47 65.9 50.47 65.9 51.43 103.76 51.43 103.76 50.47 103.76 50.47"/><g><path class="cls-52" d="M72.04,48.54h-1.25c-.08,0-.11-.02-.07-.05l.14-.08s.14-.05,.22-.05h1.22c.08,0,.11,.02,.08,.05l-.12,.08s-.13,.05-.21,.05Z"/><path class="cls-52" d="M74.04,48.54h-1.25c-.08,0-.12-.02-.08-.05l.12-.08s.13-.05,.21-.05h1.22c.08,0,.12,.02,.09,.05l-.1,.08s-.12,.05-.2,.05Z"/><path class="cls-52" d="M76.05,48.54h-1.25c-.08,0-.12-.02-.09-.05l.1-.08s.12-.05,.2-.05h1.22c.08,0,.12,.02,.1,.05l-.08,.08s-.11,.05-.19,.05Z"/><path class="cls-52" d="M78.06,48.54h-1.25c-.08,0-.13-.02-.1-.05l.08-.08s.11-.05,.19-.05h1.22c.08,0,.13,.02,.11,.05l-.06,.08s-.1,.05-.18,.05Z"/><path class="cls-52" d="M80.07,48.54h-1.25c-.08,0-.13-.02-.11-.05l.06-.08s.1-.05,.17-.05h1.22c.08,0,.13,.02,.12,.05l-.04,.08s-.09,.05-.17,.05Z"/><path class="cls-52" d="M82.08,48.54h-1.25c-.08,0-.14-.02-.12-.05l.04-.08s.09-.05,.16-.05h1.22c.08,0,.14,.02,.13,.05l-.03,.08s-.08,.05-.16,.05Z"/><path class="cls-52" d="M84.09,48.54h-1.25c-.08,0-.14-.02-.13-.05l.02-.08s.08-.05,.15-.05h1.22c.08,0,.14,.02,.14,.05v.08s-.07,.05-.16,.05Z"/><path class="cls-52" d="M86.1,48.54h-1.25c-.08,0-.15-.02-.15-.05v-.08s.07-.05,.15-.05h1.22c.08,0,.15,.02,.15,.05v.08s-.04,.05-.13,.05Z"/><path class="cls-52" d="M88.11,48.54h-1.25c-.08,0-.15-.02-.16-.05l-.02-.08s.05-.05,.13-.05h1.22c.08,0,.15,.02,.16,.05l.03,.08s-.05,.05-.13,.05Z"/><path class="cls-52" d="M90.12,48.54h-1.25c-.08,0-.16-.02-.17-.05l-.04-.08s.04-.05,.12-.05h1.22c.08,0,.16,.02,.17,.05l.05,.08s-.04,.05-.12,.05Z"/><path class="cls-52" d="M92.12,48.54h-1.25c-.08,0-.16-.02-.18-.05l-.06-.08s.03-.05,.11-.05h1.22c.08,0,.16,.02,.18,.05l.07,.08s-.03,.05-.11,.05Z"/><path class="cls-52" d="M94.13,48.54h-1.25c-.08,0-.17-.02-.19-.05l-.08-.08s.02-.05,.1-.05h1.22c.08,0,.17,.02,.19,.05l.09,.08s-.02,.05-.1,.05Z"/><path class="cls-52" d="M96.6,48.54h-1.71c-.08,0-.17-.02-.2-.05l-.1-.08s.01-.05,.09-.05h1.67c.08,0,.17,.02,.2,.05l.11,.08s0,.05-.08,.05Z"/><path class="cls-52" d="M99.08,48.54h-1.72c-.08,0-.18-.02-.21-.05l-.12-.08s0-.05,.08-.05h1.68c.08,0,.18,.02,.22,.05l.14,.08s.01,.05-.07,.05Z"/><path class="cls-52" d="M69.57,50.24h-1.49c-.1,0-.13-.03-.07-.07l.55-.34c.05-.03,.17-.06,.27-.06h1.42c.09,0,.13,.03,.08,.06l-.49,.34c-.05,.04-.17,.07-.27,.07Z"/><path class="cls-52" d="M71.96,50.24h-1.49c-.1,0-.13-.03-.08-.07l.47-.34s.16-.06,.25-.06h1.42c.09,0,.13,.03,.09,.06l-.41,.34s-.16,.07-.25,.07Z"/><path class="cls-52" d="M74.36,50.24h-1.49c-.1,0-.14-.03-.1-.07l.39-.34s.15-.06,.24-.06h1.42c.09,0,.14,.03,.11,.06l-.33,.34s-.14,.07-.24,.07Z"/><path class="cls-52" d="M76.76,50.24h-1.49c-.1,0-.15-.03-.11-.07l.32-.34s.13-.06,.22-.06h1.42c.09,0,.15,.03,.12,.06l-.26,.34s-.13,.07-.22,.07Z"/><path class="cls-52" d="M86.28,50.24h-8.55c-.13,0-.22-.02-.21-.05l.26-.38s.13-.04,.26-.04h8.17c.13,0,.23,.02,.24,.04l.06,.38s-.1,.05-.23,.05Z"/><path class="cls-52" d="M88.74,50.24h-1.49c-.1,0-.18-.03-.19-.07l-.07-.34s.06-.06,.15-.06h1.42c.09,0,.18,.03,.19,.06l.13,.34s-.05,.07-.15,.07Z"/><path class="cls-52" d="M91.13,50.24h-1.49c-.1,0-.19-.03-.2-.07l-.15-.34s.05-.06,.14-.06h1.42c.09,0,.18,.03,.2,.06l.21,.34s-.04,.07-.13,.07Z"/><path class="cls-52" d="M93.53,50.24h-1.49c-.1,0-.19-.03-.22-.07l-.23-.34s.03-.06,.13-.06h1.42c.09,0,.19,.03,.22,.06l.29,.34s-.02,.07-.12,.07Z"/><path class="cls-52" d="M99,50.24h-1.67c-.1,0-.21-.03-.25-.07l-.06-.05s0-.06,.1-.06h1.64c.09,0,.21,.03,.26,.06l.07,.05s.01,.07-.08,.07Z"/><path class="cls-52" d="M101.64,50.24h-1.67c-.1,0-.22-.03-.27-.07l-.08-.05c-.05-.04-.02-.06,.08-.06h1.64c.09,0,.22,.03,.28,.06l.09,.05c.06,.04,.03,.07-.07,.07Z"/><path class="cls-52" d="M96.37,50.24h-1.67c-.1,0-.2-.03-.24-.07l-.05-.05s.02-.06,.11-.06h1.64c.09,0,.2,.03,.24,.06l.06,.05s0,.07-.1,.07Z"/><path class="cls-52" d="M98.61,49.95h-1.63c-.09,0-.2-.03-.24-.06l-.06-.05s0-.06,.09-.06h1.6c.09,0,.2,.03,.25,.06l.07,.05s0,.06-.08,.06Z"/><path class="cls-52" d="M71.53,48.89h-1.3c-.08,0-.12-.02-.07-.05l.28-.18s.14-.05,.22-.05h1.26c.08,0,.12,.02,.08,.05l-.25,.18s-.14,.05-.22,.05Z"/><path class="cls-52" d="M73.62,48.89h-1.3c-.08,0-.12-.02-.08-.05l.24-.18s.13-.05,.21-.05h1.26c.08,0,.12,.02,.09,.05l-.21,.18s-.13,.05-.21,.05Z"/><path class="cls-52" d="M75.71,48.89h-1.3c-.08,0-.13-.02-.09-.05l.2-.18s.12-.05,.2-.05h1.26c.08,0,.13,.02,.1,.05l-.17,.18s-.12,.05-.2,.05Z"/><path class="cls-52" d="M77.79,48.89h-1.3c-.08,0-.13-.02-.11-.05l.16-.18s.11-.05,.19-.05h1.26c.08,0,.13,.02,.11,.05l-.13,.18s-.11,.05-.19,.05Z"/><path class="cls-52" d="M79.88,48.89h-1.3c-.08,0-.14-.02-.12-.05l.12-.18s.1-.05,.18-.05h1.26c.08,0,.14,.02,.12,.05l-.09,.18s-.09,.05-.18,.05Z"/><path class="cls-52" d="M81.97,48.89h-1.3c-.08,0-.14-.02-.13-.05l.08-.18s.09-.05,.17-.05h1.26c.08,0,.14,.02,.13,.05l-.05,.18s-.08,.05-.17,.05Z"/><path class="cls-52" d="M84.06,48.89h-1.3c-.08,0-.15-.02-.14-.05l.04-.18s.08-.05,.16-.05h1.26c.08,0,.15,.02,.14,.05v.18s-.08,.05-.17,.05Z"/><path class="cls-52" d="M86.15,48.89h-1.3c-.08,0-.15-.02-.15-.05v-.18s.07-.05,.15-.05h1.26c.08,0,.15,.02,.16,.05l.03,.18s-.06,.05-.14,.05Z"/><path class="cls-52" d="M88.24,48.89h-1.3c-.08,0-.16-.02-.16-.05l-.04-.18s.06-.05,.14-.05h1.26c.08,0,.16,.02,.17,.05l.07,.18s-.05,.05-.13,.05Z"/><path class="cls-52" d="M90.32,48.89h-1.3c-.08,0-.16-.02-.17-.05l-.08-.18s.04-.05,.13-.05h1.26c.08,0,.16,.02,.18,.05l.11,.18s-.04,.05-.12,.05Z"/><path class="cls-52" d="M92.41,48.89h-1.3c-.08,0-.17-.02-.19-.05l-.12-.18s.03-.05,.12-.05h1.26c.08,0,.17,.02,.19,.05l.15,.18s-.03,.05-.11,.05Z"/><path class="cls-52" d="M94.5,48.89h-1.3c-.08,0-.17-.02-.2-.05l-.16-.18s.02-.05,.1-.05h1.26c.08,0,.17,.02,.2,.05l.19,.18s-.01,.05-.1,.05Z"/><path class="cls-52" d="M97.07,48.89h-1.78c-.08,0-.18-.02-.21-.05l-.2-.18s.01-.05,.09-.05h1.72c.08,0,.18,.02,.21,.05l.24,.18s0,.05-.08,.05Z"/><path class="cls-52" d="M99.65,48.89h-1.79c-.08,0-.18-.02-.22-.05l-.25-.18s0-.05,.08-.05h1.73c.08,0,.18,.02,.23,.05l.29,.18s.01,.05-.07,.05Z"/><path class="cls-52" d="M71.98,49.27h-2.29c-.12,0-.19-.02-.15-.04l.36-.22s.16-.04,.27-.04h2.22c.12,0,.19,.02,.16,.04l-.29,.22s-.15,.04-.27,.04Z"/><path class="cls-52" d="M75.27,49.27h-2.29c-.12,0-.19-.02-.17-.04l.28-.22s.14-.04,.26-.04h2.22c.12,0,.19,.02,.17,.04l-.22,.22s-.14,.04-.26,.04Z"/><path class="cls-52" d="M77.5,49.27h-1.35c-.09,0-.14-.02-.11-.05l.18-.19s.12-.05,.2-.05h1.31c.08,0,.14,.02,.11,.05l-.14,.19s-.11,.05-.2,.05Z"/><path class="cls-52" d="M79.68,49.27h-1.35c-.09,0-.14-.02-.12-.05l.13-.19s.1-.05,.19-.05h1.31c.08,0,.14,.02,.13,.05l-.1,.19s-.1,.05-.19,.05Z"/><path class="cls-52" d="M81.85,49.27h-1.35c-.09,0-.15-.02-.13-.05l.09-.19s.09-.05,.18-.05h1.31c.08,0,.15,.02,.14,.05l-.06,.19s-.09,.05-.17,.05Z"/><path class="cls-52" d="M84.03,49.27h-1.35c-.09,0-.15-.02-.15-.05l.05-.19s.08-.05,.17-.05h1.31c.08,0,.15,.02,.15,.05v.19s-.09,.05-.18,.05Z"/><path class="cls-52" d="M86.2,49.27h-1.35c-.09,0-.16-.02-.16-.05v-.19s.07-.05,.16-.05h1.31c.08,0,.16,.02,.16,.05l.03,.19s-.06,.05-.15,.05Z"/><path class="cls-52" d="M88.38,49.27h-1.35c-.09,0-.16-.02-.17-.05l-.04-.19s.06-.05,.14-.05h1.31c.08,0,.16,.02,.17,.05l.07,.19s-.05,.05-.14,.05Z"/><path class="cls-52" d="M90.55,49.27h-1.35c-.09,0-.17-.02-.18-.05l-.08-.19s.05-.05,.13-.05h1.31c.08,0,.17,.02,.19,.05l.12,.19s-.04,.05-.12,.05Z"/><path class="cls-52" d="M92.73,49.27h-1.35c-.09,0-.17-.02-.19-.05l-.13-.19s.03-.05,.12-.05h1.31c.08,0,.17,.02,.2,.05l.16,.19s-.02,.05-.11,.05Z"/><path class="cls-52" d="M94.9,49.27h-1.35c-.09,0-.18-.02-.21-.05l-.17-.19s.02-.05,.11-.05h1.31c.08,0,.18,.02,.21,.05l.21,.19s-.01,.05-.1,.05Z"/><path class="cls-52" d="M97.03,49.27h-1.35c-.09,0-.19-.02-.22-.05l-.21-.19s.01-.05,.1-.05h1.31c.08,0,.18,.02,.22,.05l.25,.19s0,.05-.09,.05Z"/><path class="cls-52" d="M100.2,49.27h-2.26c-.12,0-.24-.02-.27-.04l-.3-.22s.04-.04,.16-.04h2.19c.12,0,.24,.02,.27,.04l.36,.22s-.03,.04-.15,.04Z"/><path class="cls-52" d="M72.65,49.68h-3.68c-.09,0-.12-.03-.07-.06l.34-.21c.05-.03,.16-.06,.25-.06h3.56c.09,0,.13,.03,.09,.06l-.25,.21s-.15,.06-.24,.06Z"/><path class="cls-52" d="M74.92,49.68h-1.41c-.09,0-.13-.03-.1-.06l.24-.21s.14-.06,.22-.06h1.36c.09,0,.14,.03,.1,.06l-.2,.21s-.13,.06-.22,.06Z"/><path class="cls-52" d="M77.19,49.68h-1.41c-.09,0-.14-.03-.11-.06l.19-.21s.12-.06,.21-.06h1.36c.09,0,.14,.03,.12,.06l-.16,.21s-.12,.06-.21,.06Z"/><path class="cls-52" d="M79.46,49.68h-1.41c-.09,0-.15-.03-.12-.06l.15-.21s.11-.06,.2-.06h1.36c.09,0,.15,.03,.13,.06l-.11,.21s-.11,.06-.2,.06Z"/><path class="cls-52" d="M81.73,49.68h-1.41c-.09,0-.15-.03-.14-.06l.1-.21s.1-.06,.19-.06h1.36c.09,0,.15,.03,.14,.06l-.06,.21s-.09,.06-.18,.06Z"/><path class="cls-52" d="M83.99,49.68h-1.41c-.09,0-.16-.03-.15-.06l.05-.21s.09-.06,.17-.06h1.36c.09,0,.16,.03,.16,.06v.21s-.09,.06-.18,.06Z"/><path class="cls-52" d="M86.26,49.68h-1.41c-.09,0-.16-.03-.16-.06v-.21s.08-.06,.16-.06h1.36c.09,0,.16,.03,.17,.06l.03,.21s-.06,.06-.16,.06Z"/><path class="cls-52" d="M88.53,49.68h-1.41c-.09,0-.17-.03-.18-.06l-.04-.21s.06-.06,.15-.06h1.36c.09,0,.17,.03,.18,.06l.08,.21s-.05,.06-.14,.06Z"/><path class="cls-52" d="M90.8,49.68h-1.41c-.09,0-.18-.03-.19-.06l-.09-.21s.05-.06,.13-.06h1.36c.09,0,.18,.03,.19,.06l.13,.21s-.04,.06-.13,.06Z"/><path class="cls-52" d="M93.07,49.68h-1.41c-.09,0-.18-.03-.2-.06l-.14-.21s.03-.06,.12-.06h1.36c.09,0,.18,.03,.21,.06l.18,.21s-.02,.06-.11,.06Z"/><path class="cls-52" d="M95.33,49.68h-1.41c-.09,0-.19-.03-.22-.06l-.19-.21s.02-.06,.11-.06h1.36c.09,0,.19,.03,.22,.06l.22,.21s-.01,.06-.1,.06Z"/><path class="cls-52" d="M100.92,49.68h-4.73c-.09,0-.2-.03-.23-.06l-.23-.21s0-.06,.1-.06h4.57c.09,0,.2,.03,.25,.06l.34,.21c.05,.03,.02,.06-.07,.06Z"/></g></g></g><g><g><rect class="cls-30" x="71.69" y="34.4" width="9.37" height=".63"/><polygon class="cls-11" points="76.95 37.79 71.74 37.82 71.74 37.34 76.95 37.31 76.95 37.79"/><rect class="cls-36" x="71.72" y="36.17" width="11.64" height=".33"/><rect class="cls-36" x="71.72" y="36.65" width="9.74" height=".33"/><polygon class="cls-30" points="83.36 35.83 72.33 35.82 72.33 35.27 83.36 35.27 83.36 35.83"/><polygon class="cls-39" points="75.78 35.82 71.73 35.82 71.73 35.27 75.78 35.27 75.78 35.82"/><text class="cls-4" transform="translate(71.64 32.95) scale(1.17 1)"><tspan class="cls-12" x="0" y="0">L</tspan><tspan x=".34" y="0">o</tspan><tspan class="cls-24" x=".74" y="0">r</tspan><tspan x=".98" y="0">em </tspan><tspan class="cls-15" x="2.12" y="0">I</tspan><tspan x="2.31" y="0">psum Review</tspan></text><g><polygon class="cls-49" points="72.07 33.92 71.81 34.04 71.87 33.79 71.65 33.61 71.95 33.58 72.07 33.35 72.2 33.58 72.5 33.61 72.28 33.79 72.34 34.04 72.07 33.92"/><polygon class="cls-54" points="73.08 33.92 72.82 34.04 72.88 33.79 72.66 33.61 72.96 33.58 73.08 33.35 73.21 33.58 73.51 33.61 73.29 33.79 73.35 34.04 73.08 33.92"/><polygon class="cls-41" points="74.1 33.92 73.83 34.04 73.89 33.79 73.67 33.61 73.97 33.58 74.1 33.35 74.22 33.58 74.52 33.61 74.3 33.79 74.36 34.04 74.1 33.92"/><polygon class="cls-17" points="75.11 33.92 74.84 34.04 74.9 33.79 74.68 33.61 74.98 33.58 75.11 33.35 75.23 33.58 75.53 33.61 75.31 33.79 75.37 34.04 75.11 33.92"/><polygon class="cls-45" points="76.12 33.92 75.85 34.04 75.91 33.79 75.69 33.61 75.99 33.58 76.12 33.35 76.24 33.58 76.55 33.61 76.32 33.79 76.38 34.04 76.12 33.92"/></g></g><g><rect class="cls-30" x="71.68" y="27.25" width="8.59" height=".63"/><polygon class="cls-11" points="76.95 30.63 71.74 30.66 71.74 30.19 76.95 30.16 76.95 30.63"/><rect class="cls-36" x="71.71" y="29.02" width="11.64" height=".33"/><rect class="cls-36" x="71.71" y="29.5" width="7.87" height=".33"/><polygon class="cls-30" points="83.36 28.67 72.32 28.67 72.32 28.11 83.36 28.12 83.36 28.67"/><polygon class="cls-39" points="74.65 28.66 71.73 28.67 71.73 28.11 74.65 28.11 74.65 28.66"/><text class="cls-4" transform="translate(71.64 25.8) scale(1.17 1)"><tspan class="cls-12" x="0" y="0">L</tspan><tspan x=".34" y="0">o</tspan><tspan class="cls-24" x=".74" y="0">r</tspan><tspan x=".98" y="0">em </tspan><tspan class="cls-15" x="2.12" y="0">I</tspan><tspan x="2.31" y="0">psum Review</tspan></text><g><polygon class="cls-55" points="72.07 26.76 71.81 26.89 71.87 26.64 71.65 26.46 71.95 26.43 72.07 26.19 72.2 26.43 72.5 26.46 72.28 26.64 72.34 26.89 72.07 26.76"/><polygon class="cls-48" points="73.08 26.76 72.82 26.89 72.88 26.64 72.66 26.46 72.96 26.43 73.08 26.19 73.21 26.43 73.51 26.46 73.29 26.64 73.35 26.89 73.08 26.76"/><polygon class="cls-34" points="74.1 26.76 73.83 26.89 73.89 26.64 73.67 26.46 73.97 26.43 74.1 26.19 74.22 26.43 74.52 26.46 74.3 26.64 74.36 26.89 74.1 26.76"/><polygon class="cls-28" points="75.11 26.76 74.84 26.89 74.9 26.64 74.68 26.46 74.98 26.43 75.11 26.19 75.23 26.43 75.53 26.46 75.31 26.64 75.37 26.89 75.11 26.76"/><polygon class="cls-57" points="76.12 26.76 75.85 26.89 75.91 26.64 75.69 26.46 75.99 26.43 76.12 26.19 76.24 26.43 76.55 26.46 76.32 26.64 76.38 26.89 76.12 26.76"/></g></g></g><g><path class="cls-50" d="M85.57,25.03c.24,.93,.9,1.45,1.26,1.26,.67-.36,1.11-4.53,.32-5.62s-2.55,.93-2.55,.93l.97,3.43Z"/><path class="cls-22" d="M87.95,39.55c.16-4.05,.6-7.01,.6-7.01l6.3,.39,7-.56s.41,2.95,.59,7.18h-14.48Z"/><path class="cls-1" d="M97.12,14.06c-.37-.52-.45-1.63-.45-1.63h-3.05s-.22,1.63-.66,1.95c-.5,.36-1.83,1.04-2.83,1.42,.16,1.25,.34,2.36,.55,3.6h8.26c.15-1.34,.32-2.67,.51-4-.79-.3-1.95-.82-2.32-1.34Z"/><path class="cls-19" d="M93.33,13.81s.05,.04,.07,.06c.02,0,.04,.02,.06,.03,.35,.19,.69,.37,1.07,.52,.03,0,.34,.11,.4,.13,.27,.08,.53,.15,.8,.21,.81,.17,1.67,.19,2.55,.13-.5-.25-.95-.54-1.15-.83-.37-.52-.45-1.63-.45-1.63h-3.05s-.11,.78-.32,1.37l.02,.02Z"/><path class="cls-56" d="M88.29,16.6c.79-.49,3.84-1.82,3.84-1.82,0,0,.13,2.11,2.88,2.11,3.15,0,3.25-2.01,3.25-2.01l3.67,1.44s-.09,5.06,.24,6.78c.34,1.72,.71,13.15,.53,13.46-.39,.66-3.97,.67-7.23,.67-4.58,0-7.33-.56-7.33-.56,0,0,.05-7.77-.03-10.8-.01-.43,.17-9.27,.17-9.27Z"/><path class="cls-40" d="M101.94,16.66c-.25,.64-.47,1.29-.65,1.95-.14,.51-.24,1.02-.35,1.53-.04,.21-.05,.27-.04,.19-.02,.13-.04,.26-.05,.39-.03,.22-.05,.45-.08,.67-.11,1.12-.13,2.24-.07,3.37,.03,.52,.07,1.05,.13,1.57,.03,.26,.06,.52,.1,.78,.02,.11,.03,.22,.05,.33-.02-.16-.01-.12,.03,.13,.39,2.03,.93,4.03,1.75,5.97-.04-3.08-.32-9.14-.57-10.43-.28-1.45-.26-5.29-.25-6.45Z"/><path class="cls-40" d="M88.11,27.82c.34-.8,1.11-4.15,1.03-5.03-.32-1.49-.63-2.98-.88-4.48-.05,2.59-.14,7.25-.13,7.56,.01,.56,0,1.23-.01,1.95Z"/><path class="cls-1" d="M92.05,10.02s.1-1.01-.83-1c-.92,.01-.6,1.66,.17,2.31,.28,.24,.71,.12,.81-.06,.16-.29-.16-1.26-.16-1.26Z"/><path class="cls-19" d="M91.44,9.64c-.3-.3-.44-.06-.37,.24s.16,.4,.23,.77c.07,.38,.39,.49,.46,.38,.07-.12-.32-1.38-.32-1.38Z"/><path class="cls-1" d="M97.73,10.02s-.1-1.01,.83-1c.92,.01,.6,1.66-.17,2.31-.28,.24-.71,.12-.81-.06-.16-.29,.16-1.26,.16-1.26Z"/><path class="cls-19" d="M98.34,9.64c.3-.3,.44-.06,.37,.24s-.16,.4-.23,.77c-.07,.38-.39,.49-.46,.38-.07-.12,.32-1.38,.32-1.38Z"/><path class="cls-1" d="M98.81,7.15c-.03,.43-.14,1.23-.28,2.07-.21,1.28-.47,2.64-.59,2.9-.19,.43-1.38,1.5-1.87,1.76-.49,.25-1.14,.15-1.14,.15,0,0-.58,.05-1.07-.21-.49-.25-1.76-1.27-1.95-1.7-.12-.26-.39-1.68-.6-2.98-.13-.81-.24-1.58-.27-2-.08-1.08,1.46-2.65,3.88-2.65s3.96,1.57,3.88,2.65Z"/><ellipse class="cls-21" cx="96.77" cy="10.47" rx=".44" ry=".25"/><path class="cls-21" d="M93.91,10.47c0,.14-.2,.25-.44,.25s-.44-.11-.44-.25,.2-.25,.44-.25,.44,.11,.44,.25Z"/><path class="cls-13" d="M98.81,7.15c-.03,.43-.14,1.23-.28,2.07l-.24,.17s.14-.76,0-1.19c-.14-.43-.63-1.09-.63-1.09,0,0,.17-.23,.17-.62,0-.39-1-.64-1.55-.54-.46,.08-2.09,.08-2.54,0-.56-.09-1.56,.16-1.56,.54,0,.39,.17,.62,.17,.62,0,0-.49,.65-.63,1.09-.14,.43,0,1.19,0,1.19l-.24-.17s-.06-.01-.15-.08c-.13-.81-.24-1.58-.27-2-.08-1.08,1.46-2.65,3.88-2.65s3.96,1.57,3.88,2.65Z"/><path class="cls-31" d="M98.49,8.98c-.02-.13-.64-.17-1.09-.17s-1.64,0-1.91,.1c-.27,.1-.27,.18-.4,.18h-.05c-.13,0-.13-.08-.4-.18-.27-.1-1.46-.1-1.91-.1s-1.07,.04-1.09,.17c0,.07,0,.16,.02,.24,.02,.07,.24,.11,.28,.13,.08,.04,.04,.05,.33,.56,.21,.38,.68,.55,1.64,.44,.74-.08,.75-.55,.85-.76,.1-.21,.17-.24,.28-.24h.05c.11,0,.18,.03,.28,.24,.1,.21,.11,.68,.85,.76,.97,.11,1.43-.06,1.64-.44,.29-.51,.25-.52,.33-.56,.04-.02,.26-.06,.28-.13,.02-.08,.03-.18,.02-.24Zm-4,.79c-.08,.27-.2,.49-1.08,.49-.62,0-.88-.16-1.05-.54-.15-.32-.11-.57-.01-.65,.09-.08,.84-.06,1.4-.04,.56,.02,.74,.03,.8,.19,.02,.06,.02,.28-.05,.54Zm3.29-.04c-.17,.37-.43,.54-1.05,.54-.88,0-1-.23-1.08-.49-.08-.27-.08-.48-.05-.54,.06-.16,.25-.17,.8-.19,.56-.02,1.3-.04,1.4,.04,.09,.08,.13,.33-.01,.65Z"/><path class="cls-19" d="M85,23.77c.31,.57-.02,2.14,.71,2.27,.96,.18,3.03-3.55,3.03-3.55l-2.92-3.28-2.07,2.27c.39,.77,.84,1.52,1.26,2.29Z"/><path class="cls-56" d="M88.29,16.6c-1.24,.52-1.53,1.26-2.2,2.04-.85,.99-1.4,1.73-1.4,1.73,0,0,1.44,1.15,2.1,3.31,.5,1.63,.05,2.61,.05,2.61l2.14-2.02s.98-2.16,.64-4.33c-.35-2.17-1.32-3.35-1.32-3.35Z"/><g><path class="cls-1" d="M83.55,17.8c.06-.39,.82-1.75,.86-2.08,.04-.34,.07-1.28-.21-1.58-.17-.18-.95-.97-.95-.97l-4.03-.1c-.33,1-.34,1.24-.05,2.1,.15,.45,.88,1.35,1.41,1.79,.53,.44,.98,.94,.98,.94l1.99-.11Z"/><path class="cls-19" d="M84.2,14.14c-.17-.18-.95-.97-.95-.97l-2.05-.05c0,.07,0,.15-.01,.22-.09,1.09-.35,2.08-.96,3.05-.03,.05-.06,.09-.1,.14,.12,.12,.23,.24,.34,.33,.13,.05,.35,.17,.2,.13,.18,.06,.36,.1,.55,.14,.09,.02,.58,.07,.48,.07,.2,.01,.4,.02,.6,.03,.5,0,.99-.01,1.49-.05,.25-.55,.6-1.24,.63-1.47,.04-.34,.07-1.28-.21-1.58Z"/><path class="cls-1" d="M85.33,26.21c.87-.17,1.39-.74,1.37-1.83-.01-.54-.42-1.17-1.52-3.19-.59-1.1-1.73-3.61-1.73-3.61l-2.18,.02c.36,1.25,.85,4.53,1.66,6.65,.55,1.44,2,2.05,2.4,1.97Z"/><g><path class="cls-20" d="M80.14,17.1l-1.5-6.23c-.03-.11,.05-.21,.18-.23l3.59-.63c.12-.02,.25,.05,.27,.15l1.5,6.23c.03,.11-.05,.21-.18,.23l-3.59,.63c-.12,.02-.25-.05-.27-.15Z"/><g><g class="cls-33"><path class="cls-58" d="M80.3,17.07l-1.5-6.23c-.03-.11,.05-.21,.18-.23l3.59-.63c.12-.02,.25,.05,.27,.15l1.5,6.23c.03,.11-.05,.21-.18,.23l-3.59,.63c-.12,.02-.25-.05-.27-.15Z"/></g><path class="cls-16" d="M82.43,16.59c.02,.08-.04,.15-.13,.17-.09,.02-.18-.03-.2-.11-.02-.08,.04-.15,.13-.17,.09-.02,.18,.03,.2,.11Z"/><path class="cls-23" d="M84.06,15.99l-3.66,.64s-.1-.02-.11-.06l-1.39-5.78s.02-.08,.07-.09l3.66-.64s.1,.02,.11,.06l1.39,5.78s-.02,.08-.07,.09Z"/><path class="cls-25" d="M83.15,11.82l-.41-1.71s-.05-.06-.09-.05l-3.69,.65s-.07,.04-.06,.08l1.03,4.27,3.22-3.23Z"/><path class="cls-38" d="M81.46,10.53l-1.2,.21c-.09,.02-.18-.03-.2-.11l-.03-.14,1.53-.27,.03,.14c.02,.08-.04,.15-.13,.17Z"/></g></g><path class="cls-1" d="M83.89,13.83c-.21-.14-.36-.23-.42-.06s.03,.49,.11,.69c.08,.2,.6,.97,.6,.97v-1.11s-.18-.43-.29-.5Z"/><path class="cls-1" d="M79.17,13.21c.04-.26,.19-.77,.38-.78,.19-.01,.23,.35,.19,.53,0,0,.4,.13,.33,.52-.07,.38-.15,.48-.15,.48,0,0,.24-.01,.23,.25s-.18,.52-.18,.52c0,0,.16,.06-.02,.48-.18,.41-.13,.54-.13,.54,0,0-.37-.72-.49-1.13-.12-.41-.15-1.41-.15-1.41Z"/></g><path class="cls-47" d="M95.95,11.72s-.1,.34-.34,.59c-.15,.16-.36,.29-.63,.29-.21,0-.37-.08-.51-.18-.32-.26-.43-.7-.43-.7,1.07,.33,1.91,0,1.91,0Z"/><path class="cls-35" d="M95.61,12.31c-.15,.16-.36,.29-.63,.29-.21,0-.37-.08-.51-.18,.21-.17,.6-.21,.87-.18,.1,.01,.19,.04,.27,.08Z"/><path class="cls-50" d="M99.08,24.54c0,.71,1.09,1.24,1.89,1.92,.8,.68,1.53,.96,1.78,.59,.25-.37,.42-2.07-.52-2.73-.94-.66-3.16,.22-3.16,.22Z"/><path class="cls-1" d="M99.63,23.69l-.95,2.12s-1.19-1.18-2.59-2.24c-1.4-1.05-1.72-1.48-1.72-1.48,0,0,.08-.25,.06-.83-.02-.58-.2-1.19-.14-1.44,.06-.25,.2-1.02,.43-1.24,.22-.22-.39-.36-.67-.24-.28,.12-.56,.9-.68,1.14s-1.1-.3-1.51-.66c-.41-.36-2.3-1.43-2.66-1.66s-.64-.14-.73,.1,.49,.59,.94,.92c.45,.32,1.29,.88,1.29,.88,0,0-.38-.05-.52,.26-.13,.31,.06,.54,.06,.54,0,0-.36,.08-.46,.37-.1,.29,.14,.46,.14,.46,0,0-.26-.03-.28,.36-.01,.38,.41,.27,.89,.88,.26,.33,1.29,.95,1.59,1.08,.23,.1,2.02,2.16,2.92,3.49,1.39,2.07,2.64,3.32,3.79,3.57,1.14,.25,1.89-.19,2.62-1.54,1.02-1.89,2.27-4.89,2.27-4.89l-4.08,.05Z"/><path class="cls-19" d="M101.63,28.17c.98-1.89,2.08-4.53,2.08-4.53l-4.08,.05-.54,1.2c1.36,.74,2.01,1.98,2.55,3.27Z"/><path class="cls-56" d="M99.08,24.54c2.51,.55,3.67,2.51,3.67,2.51,0,0,1.26-2.21,1.64-4.13s.79-3.76-.37-5.19c-.66-.81-2.08-1.4-2.08-1.4,0,0-.27,.4-.66,1.18s-.61,2.36-1.08,3.92c-.47,1.56-1.12,3.11-1.12,3.11Z"/></g><g><g class="cls-18"><rect class="cls-6" x="65.99" y="26.64" width="5.14" height="3.14" rx=".43" ry=".43" transform="translate(96.77 -40.35) rotate(90)"/></g><path class="cls-14" d="M68.67,30.55c0,.06-.06,.11-.13,.11s-.13-.05-.13-.11,.06-.11,.13-.11,.13,.05,.13,.11Z"/><rect class="cls-9" x="67.07" y="25.72" width="2.98" height="4.6" rx=".41" ry=".41"/><path class="cls-26" d="M70.05,27.09v-1.33s-.03-.05-.06-.05h-2.87s-.06,.02-.06,.05v3.32l2.98-1.99Z"/><path class="cls-6" d="M67.97,25.7h1.19v.08c0,.07-.06,.13-.13,.13h-.93c-.07,0-.13-.06-.13-.13v-.08h0Z"/></g><g><g class="cls-44"><rect class="cls-6" x="65.99" y="33.62" width="5.14" height="3.14" rx=".43" ry=".43" transform="translate(103.75 -33.38) rotate(90)"/></g><path class="cls-14" d="M68.67,37.53c0,.06-.06,.11-.13,.11s-.13-.05-.13-.11,.06-.11,.13-.11,.13,.05,.13,.11Z"/><rect class="cls-53" x="67.07" y="32.7" width="2.98" height="4.6" rx=".41" ry=".41"/><path class="cls-27" d="M70.05,34.07v-1.33s-.03-.05-.06-.05h-2.87s-.06,.02-.06,.05v3.32l2.98-1.99Z"/><path class="cls-6" d="M67.97,32.67h1.19v.08c0,.07-.06,.13-.13,.13h-.93c-.07,0-.13-.06-.13-.13v-.08h0Z"/></g><text class="cls-5" transform="translate(66.81 23.9) scale(1.17 1)"><tspan x="0" y="0">B</tspan><tspan class="cls-46" x="1.22" y="0">L</tspan><tspan class="cls-37" x="2.19" y="0">OGGER R</tspan><tspan class="cls-8" x="10.65" y="0">E</tspan><tspan x="11.78" y="0">VI</tspan><tspan class="cls-32" x="13.57" y="0">E</tspan><tspan x="14.7" y="0">W</tspan></text></g><g><path class="cls-29" d="M11,18.13c.05,.12,.12,.27,.2,.47,.08,.19,.17,.42,.26,.66,.09,.25,.2,.52,.3,.8,.11,.29,.21,.59,.32,.89,.11,.3,.21,.61,.32,.91s.2,.6,.29,.89c.08,.26,.15,.49,.21,.7,.06,.21,.11,.42,.16,.63h.03c.15-.39,.3-.78,.46-1.18s.31-.79,.46-1.17c.15-.38,.3-.75,.44-1.11,.15-.36,.28-.69,.42-1.01s.26-.6,.37-.86c.11-.26,.21-.48,.3-.66,.06-.12,.11-.21,.18-.28,.06-.07,.12-.12,.19-.15s.14-.06,.22-.07,.16-.01,.24-.01c.05,0,.1,0,.16,.02,.06,.01,.12,.03,.18,.04,.06,.02,.12,.04,.18,.07s.11,.06,.16,.1c-.46,.69-.87,1.35-1.23,1.96-.36,.62-.67,1.19-.93,1.71-.26,.52-.49,.99-.67,1.4-.18,.41-.33,.75-.44,1.03-.08,.19-.14,.36-.19,.53-.05,.17-.1,.35-.14,.55-.04,.2-.07,.42-.09,.67-.02,.25-.04,.54-.05,.88,0,.22-.02,.45-.03,.68s-.02,.48-.03,.73c0,.26-.02,.53-.03,.82,0,.29-.02,.6-.03,.94l-1.12,.16h-.08c.02-.48,.04-.94,.06-1.39s.03-.86,.04-1.24,.02-.71,.02-.99c0-.28,0-.49,0-.62,0-.22-.02-.45-.05-.69-.03-.24-.08-.49-.15-.76-.08-.29-.17-.6-.27-.93-.1-.33-.21-.66-.33-.99-.12-.33-.23-.66-.36-.98-.12-.32-.24-.62-.36-.9s-.22-.54-.32-.77-.18-.42-.25-.56c-.06-.13-.12-.24-.18-.33-.06-.09-.13-.16-.21-.21-.08-.05-.17-.09-.26-.11s-.21-.03-.33-.03c-.11,0-.23,0-.36,.02-.12,.02-.26,.03-.4,.06l-.05-.47c.48-.13,.87-.24,1.19-.31s.57-.11,.77-.11,.36,.04,.48,.13c.12,.09,.22,.22,.31,.41Z"/><path class="cls-29" d="M20.91,24.31c0-.28-.04-.52-.12-.72-.08-.2-.19-.37-.32-.5s-.28-.23-.45-.29-.34-.09-.5-.09c-.22,0-.41,.03-.57,.08s-.28,.12-.38,.22c-.1,.09-.17,.2-.21,.32-.04,.12-.06,.26-.06,.4,0,.17,.03,.34,.08,.51s.14,.34,.24,.5l-.02,.06c-.18,.1-.36,.15-.55,.15-.11,0-.21-.02-.3-.06-.09-.04-.17-.09-.24-.16s-.12-.16-.16-.26c-.04-.1-.06-.22-.06-.34,0-.21,.05-.4,.13-.58,.09-.18,.21-.35,.36-.5s.32-.29,.52-.41c.2-.12,.4-.22,.61-.3s.42-.15,.63-.19,.41-.07,.58-.07c.33,0,.62,.05,.85,.15,.24,.1,.43,.24,.57,.43,.15,.19,.25,.41,.32,.68s.1,.57,.1,.9c0,.23,0,.49-.03,.76-.02,.28-.04,.57-.06,.87-.02,.3-.04,.62-.06,.94-.02,.32-.03,.64-.03,.96,0,.5,.08,.88,.25,1.14s.39,.38,.67,.38c.24,0,.52-.1,.82-.3l.14,.23c-.21,.24-.44,.41-.69,.54-.25,.12-.51,.18-.79,.18-.21,0-.39-.04-.57-.12s-.32-.19-.45-.34c-.13-.15-.22-.34-.29-.58-.07-.23-.1-.5-.1-.8,0-.09,0-.18,0-.27,0-.09,.02-.19,.03-.29h-.03c-.14,.3-.29,.6-.47,.89s-.37,.55-.59,.78c-.21,.23-.44,.42-.68,.56-.24,.14-.5,.21-.76,.21-.22,0-.42-.04-.6-.13-.18-.08-.33-.2-.46-.35-.13-.15-.23-.32-.3-.52-.07-.2-.11-.42-.11-.66,0-.31,.05-.59,.15-.84s.24-.48,.43-.68,.4-.37,.65-.52,.53-.27,.82-.36,.61-.17,.94-.22c.33-.05,.67-.07,1.01-.07,.02-.22,.04-.43,.05-.64,.01-.21,.02-.43,.02-.68Zm-2.91,3.61c0,.14,.01,.27,.04,.39s.07,.23,.13,.33,.13,.17,.22,.22c.09,.05,.2,.08,.32,.08,.14,0,.29-.04,.44-.11,.15-.07,.3-.18,.45-.3,.15-.13,.29-.29,.42-.47s.26-.38,.36-.59c.11-.21,.2-.44,.27-.68,.07-.24,.12-.48,.14-.73-.23,0-.47,.02-.7,.05-.23,.03-.45,.07-.66,.12s-.4,.13-.58,.22-.33,.2-.46,.34c-.13,.13-.23,.29-.3,.48-.07,.18-.11,.4-.11,.64Z"/><path class="cls-29" d="M25.55,27.82c.02,.27,.09,.5,.19,.69s.24,.35,.39,.47c.16,.12,.33,.21,.51,.27s.38,.09,.56,.09c.17,0,.34-.03,.5-.08s.3-.13,.43-.23c.12-.1,.22-.22,.3-.36s.11-.3,.11-.48-.04-.35-.12-.49c-.08-.14-.18-.27-.32-.38s-.29-.22-.46-.32c-.18-.1-.36-.2-.55-.3-.17-.09-.34-.18-.5-.27-.17-.09-.33-.19-.49-.29-.16-.11-.31-.22-.44-.34-.14-.12-.26-.26-.36-.41s-.18-.32-.24-.5c-.06-.18-.09-.39-.09-.61,0-.24,.04-.46,.11-.67,.08-.2,.18-.39,.31-.55,.13-.16,.28-.31,.46-.43,.17-.12,.36-.23,.55-.31s.4-.14,.6-.18,.41-.06,.6-.06c.25,0,.49,.03,.72,.09s.42,.15,.59,.27,.3,.26,.4,.43c.1,.17,.15,.36,.15,.57,0,.08-.01,.17-.04,.26s-.07,.18-.13,.27c-.06,.08-.14,.15-.24,.21-.1,.06-.22,.09-.36,.09-.13,0-.27-.02-.42-.07v-.05c.03-.11,.06-.22,.08-.31,.02-.09,.03-.18,.03-.26,0-.16-.04-.3-.11-.41-.07-.11-.16-.2-.27-.27s-.23-.12-.36-.15c-.13-.03-.26-.05-.39-.05-.22,0-.43,.03-.6,.1-.18,.07-.33,.15-.45,.27-.12,.11-.22,.24-.28,.38-.06,.14-.1,.29-.1,.44,0,.19,.05,.37,.14,.52,.09,.15,.21,.29,.36,.42s.33,.25,.52,.36c.2,.11,.4,.22,.62,.34,.24,.13,.48,.26,.72,.39s.45,.29,.64,.46c.19,.17,.34,.37,.45,.59s.17,.48,.17,.79c0,.36-.07,.68-.22,.96s-.34,.52-.58,.71c-.24,.19-.52,.34-.83,.44-.31,.1-.63,.15-.97,.15-.17,0-.34-.01-.52-.04-.18-.03-.35-.07-.52-.13-.17-.06-.33-.12-.48-.21s-.28-.18-.39-.28-.2-.23-.27-.36c-.06-.13-.1-.28-.1-.43,0-.14,.03-.25,.08-.35,.05-.1,.12-.17,.21-.23,.09-.06,.18-.1,.29-.13s.21-.05,.32-.05l.04,.04Z"/><path class="cls-29" d="M31.41,20.73l-.47-.02c-.01-.42-.01-.8-.01-1.13s.01-.63,.04-.88c.03-.24,.09-.44,.18-.6,.09-.16,.22-.27,.39-.35s.4-.11,.68-.11c.18,0,.39,0,.62,.02,.23,.01,.48,.02,.74,.03,.26,.01,.53,.02,.8,.03s.54,.02,.79,.02c.43,0,.81,0,1.14,0,.33,0,.62,0,.88,0,.26,0,.48,0,.67-.02s.37-.02,.53-.03,.31-.03,.45-.05c.14-.02,.28-.04,.42-.07,.05,.17,.08,.31,.08,.42,0,.23-.09,.41-.26,.53-.18,.12-.44,.18-.78,.18-.33,0-.71-.02-1.15-.07-.44-.04-.94-.09-1.49-.13,0,.52-.02,1.07-.04,1.66-.01,.59-.03,1.2-.05,1.83-.02,.63-.03,1.27-.05,1.93-.02,.66-.04,1.31-.05,1.97-.02,.66-.04,1.31-.05,1.95s-.03,1.27-.05,1.87l-1.12,.16h-.09c.03-.68,.05-1.32,.07-1.94,.02-.62,.04-1.22,.06-1.81,.02-.59,.04-1.18,.05-1.77,.02-.59,.03-1.2,.04-1.82,.01-.62,.02-1.27,.02-1.95s0-1.39,0-2.15c-.18,0-.36-.01-.55-.02-.19,0-.38,0-.57,0s-.37,0-.54,.01-.32,.03-.46,.07c-.14,.04-.26,.11-.37,.2-.11,.09-.2,.22-.28,.38-.08,.16-.13,.37-.17,.62s-.06,.56-.06,.93v.12Z"/><path class="cls-29" d="M43.78,28.09s.04,.03,.07,.04,.06,.04,.08,.06,.05,.05,.07,.07c.02,.03,.03,.05,.03,.08,0,.01,0,.03-.01,.04-.18,.27-.37,.51-.57,.71-.2,.2-.42,.37-.64,.5s-.44,.24-.67,.3-.45,.1-.67,.1c-.38,0-.73-.09-1.04-.26-.32-.17-.59-.41-.82-.7-.23-.3-.4-.65-.53-1.05-.13-.4-.19-.83-.19-1.29,0-.37,.04-.75,.11-1.13s.18-.73,.32-1.07,.31-.66,.51-.95,.43-.55,.69-.76c.26-.22,.54-.38,.85-.51,.31-.12,.64-.18,.99-.18,.23,0,.46,.03,.67,.11,.21,.07,.4,.17,.56,.3,.16,.13,.29,.29,.38,.49,.09,.19,.14,.41,.14,.66,0,.36-.11,.67-.32,.94s-.5,.49-.87,.68c-.37,.19-.8,.34-1.31,.45s-1.04,.2-1.62,.26v.09c0,.45,.05,.86,.15,1.23s.24,.69,.42,.95c.18,.26,.39,.47,.64,.62,.24,.15,.51,.22,.79,.22s.58-.08,.87-.23c.3-.16,.6-.41,.91-.76Zm-.89-4.22c0-.16-.02-.31-.07-.45-.05-.14-.12-.26-.2-.37s-.19-.18-.31-.24c-.12-.06-.25-.09-.39-.09-.21,0-.39,.04-.56,.12-.17,.08-.32,.19-.45,.33s-.25,.3-.35,.48c-.1,.18-.19,.38-.26,.59-.07,.21-.13,.42-.17,.64-.04,.22-.08,.43-.09,.64,.45-.04,.85-.1,1.21-.18,.36-.09,.66-.2,.9-.33s.43-.3,.56-.48,.19-.4,.19-.64Z"/><path class="cls-29" d="M49.86,24.32c.09-.19,.13-.39,.13-.59,0-.14-.02-.27-.06-.39-.04-.12-.11-.23-.19-.32s-.19-.17-.32-.22c-.13-.05-.28-.08-.45-.08-.25,0-.47,.05-.66,.14s-.37,.23-.52,.4-.28,.36-.38,.58c-.11,.22-.19,.46-.26,.71s-.12,.51-.15,.78c-.03,.26-.05,.52-.05,.78,0,.45,.05,.86,.16,1.23s.25,.69,.43,.95c.18,.26,.39,.46,.63,.61,.24,.14,.5,.22,.77,.22,.29,0,.58-.08,.87-.25s.58-.44,.86-.81c.02,0,.04,.03,.07,.04s.06,.04,.08,.07c.03,.02,.05,.05,.07,.07s.03,.05,.03,.07c0,.01,0,.02,0,.03v.02c-.32,.55-.68,.96-1.11,1.24-.43,.27-.9,.41-1.41,.41-.28,0-.53-.04-.77-.13-.23-.09-.44-.2-.63-.36-.19-.15-.36-.33-.5-.54s-.26-.43-.36-.68-.17-.5-.22-.77c-.05-.27-.07-.54-.07-.81,0-.37,.04-.74,.11-1.11,.07-.37,.18-.73,.32-1.07,.14-.34,.31-.66,.51-.96s.43-.55,.68-.77,.53-.39,.84-.52,.63-.19,.98-.19c.26,0,.5,.04,.72,.11s.42,.17,.58,.3,.29,.28,.38,.46,.14,.38,.14,.6c0,.14-.02,.27-.06,.38-.04,.11-.09,.2-.17,.28-.07,.08-.16,.14-.25,.18s-.2,.06-.32,.06c-.07,0-.14,0-.22-.02-.07-.02-.15-.04-.22-.08l-.02-.06Z"/><path class="cls-29" d="M54.27,26.93c.24-.89,.5-1.64,.77-2.26s.55-1.12,.83-1.5c.28-.38,.56-.66,.85-.83,.28-.17,.55-.26,.81-.26,.18,0,.35,.04,.51,.11,.16,.08,.31,.19,.44,.35,.13,.16,.23,.36,.31,.61,.08,.25,.11,.55,.11,.89,0,.11,0,.25-.02,.43s-.02,.38-.04,.61-.03,.46-.05,.7c-.02,.24-.04,.49-.05,.73-.02,.24-.03,.46-.04,.68s-.02,.4-.02,.55c0,.27,.01,.5,.03,.67s.05,.31,.1,.41c.05,.1,.11,.17,.19,.2,.08,.04,.18,.06,.29,.06,.16,0,.34-.03,.51-.08s.36-.12,.54-.21l.09,.27c-.11,.1-.26,.2-.43,.31-.17,.11-.36,.2-.55,.29s-.38,.16-.57,.21-.36,.08-.5,.08c-.17,0-.3-.05-.4-.15-.1-.1-.17-.24-.22-.42s-.08-.38-.09-.61c-.01-.24-.02-.49-.02-.76,0-.33,.01-.66,.03-1.01,.02-.35,.04-.68,.07-1,.02-.32,.05-.61,.07-.88s.03-.48,.03-.64c0-.39-.07-.68-.2-.88-.14-.19-.32-.29-.55-.29-.18,0-.37,.09-.58,.26-.2,.17-.41,.41-.61,.71-.2,.3-.39,.65-.58,1.06-.19,.41-.35,.85-.5,1.33-.15,.48-.27,.97-.37,1.49-.1,.52-.16,1.04-.19,1.56l-1.01,.14h-.08c.02-.42,.04-.88,.06-1.38,.02-.5,.05-1.03,.08-1.59s.06-1.15,.09-1.75,.06-1.23,.09-1.86,.06-1.27,.09-1.91c.03-.64,.06-1.28,.09-1.9,.03-.63,.06-1.24,.09-1.84,.03-.6,.06-1.17,.08-1.72,0-.08,.03-.16,.07-.22s.09-.11,.16-.15c.06-.04,.14-.06,.22-.08,.08-.02,.17-.03,.26-.03,.19,0,.39,.06,.6,.17-.07,.72-.14,1.37-.19,1.97s-.11,1.15-.15,1.66c-.05,.51-.09,.99-.12,1.43s-.07,.86-.1,1.27c-.03,.4-.06,.8-.08,1.19-.03,.39-.05,.78-.08,1.18s-.05,.81-.08,1.24-.06,.89-.09,1.39h.03Z"/><path class="cls-29" d="M19.25,32.56c.41,0,.8,.04,1.15,.13s.66,.19,.91,.31c.26,.12,.46,.25,.6,.39,.14,.14,.22,.27,.22,.38,0,.24,0,.56-.02,.94-.02,.39-.04,.85-.06,1.4l-.41-.02s0-.1,0-.14c0-.04,0-.09,0-.14,0-.24-.03-.47-.07-.69s-.13-.43-.25-.63c-.13-.2-.28-.38-.45-.53-.18-.15-.37-.28-.58-.39s-.43-.18-.67-.24-.48-.08-.72-.08c-.42,0-.81,.07-1.15,.22-.35,.15-.66,.35-.93,.61-.27,.26-.51,.56-.71,.92-.2,.35-.37,.73-.5,1.15-.13,.41-.23,.85-.29,1.3-.06,.46-.1,.92-.1,1.38,0,.55,.04,1.07,.12,1.56,.08,.49,.2,.94,.35,1.35,.15,.41,.33,.78,.55,1.1,.21,.33,.46,.6,.72,.83s.56,.4,.87,.52c.31,.12,.64,.18,.98,.18,.24,0,.49-.03,.74-.09s.51-.15,.78-.27c.26-.12,.53-.28,.79-.47,.27-.19,.53-.42,.8-.69,.03,.01,.05,.03,.09,.05,.03,.02,.06,.04,.09,.07,.03,.03,.05,.05,.07,.09,.02,.03,.03,.06,.03,.09,0,.02-.01,.05-.04,.09-.31,.38-.62,.7-.94,.95s-.63,.46-.95,.62c-.32,.16-.64,.27-.96,.34-.32,.07-.65,.1-.97,.1-.43,0-.83-.07-1.22-.2s-.75-.32-1.08-.57-.63-.54-.9-.89-.5-.74-.69-1.18c-.19-.44-.34-.91-.44-1.42-.1-.51-.15-1.05-.15-1.62s.05-1.1,.15-1.65c.1-.55,.25-1.08,.45-1.58s.45-.98,.74-1.41c.3-.44,.65-.82,1.04-1.14s.85-.58,1.35-.76c.5-.18,1.05-.28,1.65-.28Z"/><path class="cls-29" d="M24.92,45.06h-.08c.03-.34,.05-.7,.07-1.09,.02-.39,.04-.79,.06-1.2,.02-.4,.04-.81,.05-1.2,.01-.4,.03-.77,.04-1.11s.02-.65,.02-.93c0-.27,0-.49,0-.65,0-.13,0-.24-.01-.34,0-.09-.03-.17-.06-.24-.03-.06-.08-.11-.14-.14s-.15-.04-.26-.04c-.05,0-.11,0-.17,.01-.06,0-.12,.02-.19,.03-.07,.01-.15,.03-.23,.06-.09,.02-.19,.05-.3,.08l-.07-.38c.52-.21,.95-.36,1.27-.44,.33-.09,.55-.13,.66-.13,.21,0,.36,.07,.45,.2,.09,.13,.13,.34,.13,.6,0,.02,0,.1,0,.22s-.02,.27-.03,.47c-.01,.19-.02,.41-.04,.67s-.03,.52-.05,.81c-.02,.29-.04,.59-.07,.9-.03,.31-.05,.63-.08,.94h.05c.15-.68,.32-1.32,.51-1.92s.41-1.11,.64-1.55,.5-.78,.79-1.03c.29-.25,.6-.38,.94-.38,.12,0,.23,.02,.34,.06,.1,.04,.19,.1,.27,.18s.14,.16,.18,.27c.04,.1,.07,.22,.07,.34,0,.16-.03,.31-.09,.45-.06,.15-.16,.27-.29,.39h-.04c-.13-.12-.26-.21-.38-.27-.12-.05-.24-.08-.38-.08-.14,0-.28,.03-.41,.09s-.25,.15-.37,.26c-.18,.18-.35,.42-.5,.72s-.3,.63-.42,1c-.13,.37-.24,.75-.35,1.15-.1,.4-.19,.79-.27,1.17-.07,.38-.13,.74-.18,1.07-.05,.33-.08,.62-.1,.84l-.99,.14Z"/><path class="cls-29" d="M34.63,39.52c0-.28-.04-.52-.12-.72-.08-.2-.19-.37-.32-.5s-.28-.23-.45-.29-.34-.09-.5-.09c-.22,0-.41,.03-.57,.08-.16,.05-.28,.12-.38,.22-.1,.09-.17,.2-.21,.32-.04,.12-.06,.26-.06,.4,0,.17,.03,.34,.08,.51,.06,.17,.14,.34,.24,.5l-.02,.06c-.18,.1-.36,.15-.55,.15-.11,0-.21-.02-.3-.06s-.17-.09-.24-.16c-.07-.07-.12-.16-.16-.26s-.06-.22-.06-.34c0-.21,.05-.4,.13-.58,.09-.18,.21-.35,.36-.5s.32-.29,.52-.4c.2-.12,.4-.22,.61-.3,.21-.08,.42-.15,.63-.19,.21-.04,.41-.07,.58-.07,.33,0,.62,.05,.85,.15,.24,.1,.43,.24,.57,.43,.15,.19,.25,.41,.32,.68,.07,.27,.1,.57,.1,.9,0,.23,0,.49-.03,.76-.02,.28-.04,.57-.06,.87-.02,.3-.04,.62-.06,.94-.02,.32-.03,.64-.03,.96,0,.5,.08,.88,.25,1.14,.17,.25,.39,.38,.67,.38,.24,0,.52-.1,.82-.3l.14,.23c-.21,.24-.44,.41-.69,.54-.25,.12-.51,.18-.79,.18-.21,0-.39-.04-.57-.12-.17-.08-.32-.19-.45-.35-.13-.15-.22-.34-.29-.58-.07-.23-.1-.5-.1-.8,0-.09,0-.18,0-.27,0-.09,.02-.19,.03-.29h-.03c-.14,.3-.29,.6-.47,.89-.18,.29-.37,.55-.59,.78-.21,.23-.44,.41-.68,.56-.24,.14-.5,.21-.76,.21-.22,0-.42-.04-.6-.13-.18-.08-.33-.2-.46-.35-.13-.15-.23-.32-.3-.52-.07-.2-.11-.42-.11-.66,0-.31,.05-.59,.15-.84s.24-.48,.43-.68c.18-.2,.4-.37,.65-.52,.25-.15,.53-.27,.82-.36s.61-.17,.94-.22c.33-.05,.67-.07,1.01-.07,.02-.22,.04-.44,.05-.64,.01-.21,.02-.43,.02-.68Zm-2.91,3.61c0,.14,.01,.27,.04,.39,.03,.12,.07,.23,.13,.33,.06,.09,.13,.17,.22,.22,.09,.05,.2,.08,.32,.08,.14,0,.29-.04,.44-.11,.15-.07,.3-.18,.45-.3,.15-.13,.29-.29,.42-.47s.26-.38,.36-.59c.11-.21,.2-.44,.27-.68,.07-.24,.12-.48,.14-.73-.23,0-.47,.02-.7,.05s-.45,.07-.66,.12c-.21,.06-.4,.13-.58,.22-.18,.09-.33,.2-.46,.34-.13,.13-.23,.29-.3,.48s-.11,.4-.11,.64Z"/><path class="cls-29" d="M39.47,37.7c.01-.33,.03-.64,.05-.94,.02-.3,.04-.6,.08-.89,.03-.29,.07-.59,.12-.88s.1-.6,.17-.91c.09-.41,.2-.78,.33-1.11s.29-.62,.46-.87,.36-.47,.56-.65c.2-.18,.41-.33,.62-.45s.43-.2,.64-.26,.43-.08,.64-.08c.3,0,.57,.05,.81,.13,.24,.09,.44,.21,.6,.35s.29,.31,.37,.49c.09,.18,.13,.37,.13,.56,0,.14-.02,.26-.06,.36-.04,.11-.1,.19-.17,.27-.07,.07-.15,.13-.25,.17s-.2,.06-.31,.06c-.15,0-.3-.04-.45-.11l-.02-.05c.06-.14,.1-.26,.13-.37s.05-.22,.05-.33c0-.17-.03-.31-.09-.43-.06-.12-.14-.22-.24-.3-.1-.08-.21-.13-.34-.17s-.25-.05-.37-.05c-.25,0-.47,.04-.66,.13s-.35,.2-.5,.35-.26,.32-.36,.51c-.1,.19-.18,.4-.24,.62-.07,.22-.12,.45-.16,.69-.04,.24-.08,.47-.1,.69-.04,.31-.07,.6-.1,.88-.03,.27-.05,.55-.07,.83-.02,.28-.04,.56-.05,.85-.01,.29-.02,.61-.03,.95,.51,.02,1,.03,1.46,.04,.46,0,.91,.02,1.33,.03,.05-.56,.11-1.1,.16-1.61,.05-.51,.11-.96,.17-1.35,.01-.09,.04-.17,.08-.23,.04-.06,.09-.11,.15-.14,.06-.03,.12-.06,.19-.07,.07-.01,.13-.02,.19-.02,.1,0,.2,.01,.28,.04,.08,.02,.16,.06,.23,.11-.09,.53-.17,1.07-.24,1.63-.07,.56-.12,1.11-.17,1.66,.48,0,.89,0,1.25-.02,.36-.01,.65-.04,.87-.07,.02,.06,.03,.11,.04,.16s.01,.1,.01,.13c0,.1-.03,.17-.08,.22-.05,.05-.14,.09-.26,.11s-.28,.04-.47,.04c-.19,0-.43,0-.72,0h-.31c-.06,0-.12,0-.19,0-.06,0-.13,0-.2,0-.03,.37-.06,.72-.08,1.06-.02,.34-.04,.67-.05,.97-.01,.3-.02,.59-.03,.85,0,.26-.01,.49-.01,.68,0,.37,.02,.71,.05,1s.1,.54,.19,.75c.09,.2,.21,.36,.36,.47s.35,.16,.59,.16c.17,0,.36-.03,.57-.1s.45-.17,.72-.32c.09,.09,.13,.21,.15,.35-.2,.14-.39,.27-.59,.39s-.39,.22-.59,.3-.38,.15-.56,.2c-.18,.04-.35,.07-.51,.07-.21,0-.41-.04-.58-.13-.18-.09-.33-.24-.46-.46-.13-.22-.23-.51-.3-.89-.07-.37-.11-.84-.11-1.41,0-.63,.02-1.29,.05-1.96,.03-.67,.08-1.34,.14-2.01-.23,0-.46-.01-.7-.02-.24,0-.48-.01-.71-.02-.24,0-.47-.01-.69-.02s-.44,0-.64,0c-.01,.42-.03,.87-.05,1.36-.02,.49-.04,1-.07,1.53s-.07,1.06-.11,1.6-.1,1.07-.16,1.58c-.06,.52-.14,1.01-.23,1.47-.09,.47-.19,.89-.31,1.28-.19,.6-.4,1.1-.63,1.5-.23,.4-.48,.72-.75,.97s-.54,.42-.82,.52c-.28,.1-.56,.16-.85,.16-.24,0-.47-.03-.68-.09-.21-.06-.39-.14-.54-.24s-.27-.22-.36-.36-.13-.28-.13-.43c0-.08,.02-.17,.05-.25,.03-.08,.08-.16,.14-.22,.06-.06,.13-.12,.22-.16,.08-.04,.17-.06,.27-.06,.09,.18,.19,.34,.3,.47,.11,.13,.23,.23,.36,.32,.13,.08,.26,.14,.39,.18s.27,.06,.41,.06c.36,0,.67-.13,.93-.39s.47-.63,.64-1.11c.17-.48,.31-1.06,.4-1.73,.1-.68,.17-1.43,.23-2.26,.05-.83,.09-1.72,.1-2.69,.02-.96,.03-1.97,.04-3.03-.3,0-.57,.02-.82,.04-.25,.02-.46,.07-.63,.14-.01-.03-.02-.06-.02-.1,0-.08,.04-.16,.11-.24,.07-.07,.17-.14,.3-.19s.29-.1,.47-.13c.18-.04,.39-.06,.61-.07Z"/><path class="cls-29" d="M53,43.29s.04,.03,.07,.04c.03,.02,.06,.04,.08,.06,.03,.02,.05,.05,.07,.07s.03,.05,.03,.08c0,.01,0,.03-.01,.04-.18,.27-.37,.51-.57,.71-.2,.2-.42,.37-.64,.5s-.44,.24-.67,.3c-.23,.06-.45,.1-.67,.1-.38,0-.73-.09-1.04-.26-.32-.17-.59-.41-.82-.7-.23-.3-.4-.65-.53-1.05-.13-.4-.19-.83-.19-1.29,0-.37,.04-.75,.11-1.12s.18-.73,.32-1.07,.31-.66,.51-.95c.2-.29,.43-.55,.69-.76,.26-.22,.54-.38,.85-.51,.31-.12,.64-.18,.99-.18,.23,0,.46,.03,.67,.11,.21,.07,.4,.17,.56,.3s.29,.29,.38,.49,.14,.41,.14,.66c0,.36-.11,.67-.32,.94-.21,.27-.5,.49-.87,.68-.37,.19-.8,.34-1.31,.45s-1.04,.2-1.62,.26v.09c0,.45,.05,.86,.15,1.23,.1,.37,.24,.69,.42,.96,.18,.26,.39,.47,.64,.62,.24,.15,.51,.22,.79,.22s.58-.08,.87-.24c.3-.16,.6-.41,.91-.76Zm-.89-4.22c0-.16-.02-.31-.07-.45s-.12-.26-.2-.37c-.09-.1-.19-.19-.31-.24-.12-.06-.25-.09-.39-.09-.21,0-.39,.04-.56,.12-.17,.08-.32,.19-.45,.33s-.25,.3-.35,.48-.19,.38-.26,.59c-.07,.21-.13,.42-.17,.64-.04,.22-.08,.43-.09,.64,.45-.04,.85-.1,1.21-.18,.36-.09,.66-.2,.9-.33s.43-.3,.56-.48c.13-.19,.19-.4,.19-.64Z"/><path class="cls-29" d="M55.87,45.06h-.08c.03-.34,.05-.7,.07-1.09,.02-.39,.04-.79,.06-1.2,.02-.4,.04-.81,.05-1.2,.01-.4,.03-.77,.04-1.11s.02-.65,.02-.93c0-.27,0-.49,0-.65,0-.13,0-.24-.01-.34,0-.09-.03-.17-.06-.24-.03-.06-.08-.11-.14-.14s-.15-.04-.26-.04c-.05,0-.11,0-.17,.01-.06,0-.12,.02-.19,.03-.07,.01-.15,.03-.23,.06-.09,.02-.19,.05-.3,.08l-.07-.38c.52-.21,.95-.36,1.27-.44,.33-.09,.55-.13,.66-.13,.21,0,.36,.07,.45,.2,.09,.13,.13,.34,.13,.6,0,.02,0,.1,0,.22s-.02,.27-.03,.47c-.01,.19-.02,.41-.04,.67s-.03,.52-.05,.81c-.02,.29-.04,.59-.07,.9-.03,.31-.05,.63-.08,.94h.05c.15-.68,.32-1.32,.51-1.92s.41-1.11,.64-1.55,.5-.78,.79-1.03c.29-.25,.6-.38,.94-.38,.12,0,.23,.02,.34,.06,.1,.04,.19,.1,.27,.18s.14,.16,.18,.27c.04,.1,.07,.22,.07,.34,0,.16-.03,.31-.09,.45-.06,.15-.16,.27-.29,.39h-.04c-.13-.12-.26-.21-.38-.27-.12-.05-.24-.08-.38-.08-.14,0-.28,.03-.41,.09s-.25,.15-.37,.26c-.18,.18-.35,.42-.5,.72s-.3,.63-.42,1c-.13,.37-.24,.75-.35,1.15-.1,.4-.19,.79-.27,1.17-.07,.38-.13,.74-.18,1.07-.05,.33-.08,.62-.1,.84l-.99,.14Z"/></g></svg>